<svg class="svg-icon" style="width: 1em; height: 1em;vertical-align: middle;fill: currentColor;overflow: hidden;"
     viewBox="0 0 1024 1024" version="1.1" xmlns="http://www.w3.org/2000/svg">
    <path d="M838.936097 792.351106l-43.508933-25.104771 37.251416-21.339004c6.022157-3.421936 8.113795-11.150968 4.666276-17.228383-2.214435-3.895727-6.417153-6.316869-10.964726-6.316869a12.719696 12.719696 0 0 0-6.272867 1.659802l-49.768497 28.711925-95.334275-55.007824 95.334275-55.000662 49.844222 28.753881c2.020006 1.079588 4.055362 1.604544 6.218632 1.604544 4.470825 0 8.659217-2.406816 10.946306-6.309706 3.393283-5.973038 1.318018-13.68979-4.646833-17.214057l-37.074384-21.447474 43.523259-25.115004c4.430916-2.549056 7.591909-6.681166 8.898671-11.636015 1.311879-4.962012 0.597611-10.128685-1.990331-14.522762-3.41068-5.930059-9.792017-9.612938-16.653285-9.612938-3.366677 0-6.697539 0.898463-9.622148 2.597151l-43.523259 25.115004v-42.907229c0-6.940063-5.647627-12.588713-12.589736-12.588713-6.942109 0-12.588713 5.647627-12.588713 12.588713v57.419758l-95.336322 55.000661V554.447764l49.751101-28.696575c2.914376-1.655709 5.004991-4.375657 5.882987-7.657401 0.871857-3.25923 0.440022-6.65763-1.214664-9.570982-2.214435-3.89675-6.417153-6.318916-10.967796-6.318916a12.709463 12.709463 0 0 0-6.272867 1.660826l-37.074384 21.445428v-50.215682c0-10.620895-8.640798-19.261693-19.259646-19.261693-10.620895 0-19.261693 8.640798-19.261692 19.261693v50.215682l-37.084617-21.454638a12.653181 12.653181 0 0 0-6.233981-1.651616c-4.479011 0-8.680706 2.406816-10.989286 6.317892-3.39226 5.970992-1.316995 13.68979 4.652974 17.22122l49.76645 28.704762v110.108771l-95.336322-55.002708v-57.524135c0-6.940063-5.650697-12.588713-12.594853-12.588713-6.942109 0-12.588713 5.647627-12.588712 12.588713v42.907229L453.390137 569.820893a19.173688 19.173688 0 0 0-9.544376-2.550079c-6.840802 0-13.244652 3.657296-16.726964 9.56689-5.243421 9.114588-2.108011 20.892843 7.012718 26.267247l43.522236 25.107841-37.160342 21.439288c-6.02625 3.426029-8.119935 11.155061-4.668322 17.22736 2.241041 3.952009 6.335289 6.312776 10.952446 6.312776 2.152013 0 4.184299-0.527003 6.29231-1.65264l49.768497-28.706809 95.334275 55.000662-95.334275 55.002708-49.783847-28.716018a12.660344 12.660344 0 0 0-6.236028-1.651617c-4.475941 0-8.679683 2.40477-10.993378 6.31687-3.393283 5.972015-1.318018 13.68979 4.649903 17.21508l37.078477 21.447474-43.525306 25.115004c-4.450359 2.558265-7.632841 6.706749-8.963139 11.682064a19.056008 19.056008 0 0 0 1.942235 14.582113c3.397377 5.947456 9.777691 9.642614 16.648169 9.642615 3.27765 0 6.506181-0.873903 9.632381-2.618641l43.525306-25.115004v42.902112c0 6.942109 5.646604 12.588713 12.588713 12.588713s12.589736-5.646604 12.589736-12.588713v-57.413617l95.336322-55.000662v110.107747l-49.751101 28.695553c-2.914376 1.655709-5.004991 4.376681-5.881964 7.658423-0.871857 3.25923-0.440022 6.656607 1.213641 9.565866 2.237971 3.953032 6.330172 6.313799 10.946306 6.3138 2.157129 0 4.191462-0.527003 6.30459-1.65264l37.06415-21.444404v50.215681c0 10.620895 8.641821 19.261693 19.262716 19.261693s19.259646-8.640798 19.259646-19.261693V870.468255l37.144992 21.488406c2.025123 1.083681 4.059456 1.609661 6.216585 1.609661 4.466732 0 8.65717-2.40477 10.951423-6.309706 3.393283-5.968945 1.316995-13.688767-4.65809-17.22122l-49.76645-28.704762V731.005946l95.343485 55.002708v57.413618c0 6.940063 5.646604 12.586666 12.586666 12.586666 6.942109 0 12.589736-5.646604 12.589736-12.586666v-42.903136l43.518143 25.111934a19.222807 19.222807 0 0 0 9.637498 2.621711c6.865361 0 13.246699-3.693112 16.645099-9.634428 5.238304-9.111518 2.100848-20.890796-7.018858-26.267247z"/>
    <path d="M471.443305 947.106726c-163.287947 0-296.133557-132.388193-296.133557-295.115368 0-36.393885 12.006452-75.649957 21.038152-102.013395 3.601015-10.511401 37.19104-106.156762 106.782002-225.915309 47.1386-81.122599 94.679359-159.530366 115.63667-190.72381l29.15604-43.840484a28.245298 28.245298 0 0 1 47.03934 0l29.144784 43.825135c20.956288 31.18935 68.50421 109.61042 115.646903 190.739159a1537.658779 1537.658779 0 0 1 35.967166 65.540715c7.170307 13.855566 1.750877 30.898731-12.102642 38.069037-13.858636 7.169283-30.899754 1.749854-38.069037-12.102642a1480.734302 1480.734302 0 0 0-34.640962-63.123666c-45.874817-78.946027-93.699032-157.863401-113.714901-187.648775l-0.075725-0.112563-5.677302-8.537444-5.677303 8.537444-0.076748 0.112563c-20.010753 29.77821-67.835991 108.695584-113.713878 187.646728-66.874083 115.084085-98.766444 205.868741-102.183264 215.84086-12.105712 35.334763-17.9887 62.714344-17.9887 83.7044 0 131.576711 107.501386 238.622726 239.640916 238.622726 15.600303 0 28.246321 12.646018 28.246321 28.246321-0.001023 15.600303-12.642948 28.248368-28.244275 28.248368z"/>
</svg>
